<?xml version="1.0" encoding="utf-8"?>
<!-- Generator: Adobe Illustrator 18.1.0, SVG Export Plug-In . SVG Version: 6.00 Build 0)  -->
<svg version="1.1" id="Layer_1" xmlns="http://www.w3.org/2000/svg" xmlns:xlink="http://www.w3.org/1999/xlink" x="0px" y="0px"
   viewBox="0 0 1296 1728" enable-background="new 0 0 1296 1728" xml:space="preserve">
<g>
  <g>
    <path fill-rule="evenodd" clip-rule="evenodd" fill="#FFFFFF" d="M491.4,586.5c27.6,0,50,22.4,50,50c0,27.7-22.4,50-50,50
      c-27.6,0-50.1-22.4-50.1-50C441.4,608.9,463.8,586.5,491.4,586.5z"/>
    <path fill-rule="evenodd" clip-rule="evenodd" fill="#FFFFFF" d="M263.2,586.5c27.6,0,50,22.4,50,50c0,27.7-22.4,50-50,50
      c-27.7,0-50-22.4-50-50C213.1,608.9,235.5,586.5,263.2,586.5z"/>
    <path fill-rule="evenodd" clip-rule="evenodd" fill="#FFFFFF" d="M378.8,950.8c-0.5,0-1,0-1.5,0c-0.5,0-1,0-1.5,0
      c-101,0-213.9-65.6-239.9-176c68.2,31.6,163.6,45.3,241.4,45.3c77.8,0,173.2-13.8,241.4-45.3C592.7,885.2,479.8,950.8,378.8,950.8
      z"/>
    <path fill-rule="evenodd" clip-rule="evenodd" fill="#FFFFFF" d="M491.4,586.5c27.6,0,50,22.4,50,50c0,27.7-22.4,50-50,50
      c-27.6,0-50.1-22.4-50.1-50C441.4,608.9,463.8,586.5,491.4,586.5z"/>
    <path fill-rule="evenodd" clip-rule="evenodd" fill="#FFFFFF" d="M263.2,586.5c27.6,0,50,22.4,50,50c0,27.7-22.4,50-50,50
      c-27.7,0-50-22.4-50-50C213.1,608.9,235.5,586.5,263.2,586.5z"/>
    <path fill-rule="evenodd" clip-rule="evenodd" fill="#FFFFFF" d="M378.8,950.8c-0.5,0-1,0-1.5,0c-0.5,0-1,0-1.5,0
      c-101,0-213.9-65.6-239.9-176c68.2,31.6,163.6,45.3,241.4,45.3c77.8,0,173.2-13.8,241.4-45.3C592.7,885.2,479.8,950.8,378.8,950.8
      z"/>
  </g>
  <g>
    <g>
      <path fill="none" d="M135.9,774.8c26,110.4,138.8,176,239.9,176c0.5,0,1,0,1.5,0c0.5,0,1,0,1.5,0c101,0,213.9-65.6,239.8-176
        c-68.2,31.6-163.6,45.3-241.4,45.3C299.5,820.2,204.1,806.4,135.9,774.8z"/>
      <path fill="none" d="M491.4,686.6c27.6,0,50-22.4,50-50c0-27.6-22.4-50-50-50c-27.6,0-50.1,22.4-50.1,50
        C441.4,664.2,463.8,686.6,491.4,686.6z"/>
      <path fill="none" d="M1070.6,873.7c23.4,0,42.5-19,42.5-42.5c0-23.5-19-42.5-42.5-42.5c-23.5,0-42.5,19.1-42.5,42.5
        C1028.1,854.7,1047.1,873.7,1070.6,873.7z"/>
      <path fill="none" d="M263.2,686.6c27.6,0,50-22.4,50-50c0-27.6-22.4-50-50-50c-27.7,0-50,22.4-50,50
        C213.1,664.2,235.5,686.6,263.2,686.6z"/>
      <path fill="none" d="M876.6,873.7c23.5,0,42.5-19,42.5-42.5c0-23.5-19.1-42.5-42.5-42.5c-23.5,0-42.5,19.1-42.5,42.5
        C834.1,854.7,853.1,873.7,876.6,873.7z"/>
      <path fill="none" d="M768.4,948.7c22.1,93.8,118,149.6,203.9,149.6c0.4,0,0.9,0,1.3,0c0.5,0,0.9,0,1.3,0
        c85.9,0,181.8-55.7,203.9-149.6c-58,26.8-139,38.5-205.2,38.5C907.5,987.2,826.4,975.5,768.4,948.7z"/>
      <path fill="#00B7E2" d="M755.5,695c-14.3-172-177.7-307.7-377.2-307.7C169.4,387.2,0,536.1,0,719.6c0,91.4,42,174.1,109.9,234.2
        c-11.8,41.6-35.2,98-81.3,153.1c7.9,14,137.8-35.3,229.4-72.1c37.8,11.1,78.2,17.1,120.2,17.1c110.1,0,209.2-41.3,278.3-107.3
        c-2.4-14-3.7-28.3-3.7-42.9C652.9,820.1,692.4,746.6,755.5,695z M491.4,586.5c27.6,0,50,22.4,50,50c0,27.7-22.4,50-50,50
        c-27.6,0-50.1-22.4-50.1-50C441.4,608.9,463.8,586.5,491.4,586.5z M263.2,586.5c27.6,0,50,22.4,50,50c0,27.7-22.4,50-50,50
        c-27.7,0-50-22.4-50-50C213.1,608.9,235.5,586.5,263.2,586.5z M378.8,950.8c-0.5,0-1,0-1.5,0c-0.5,0-1,0-1.5,0
        c-101,0-213.9-65.6-239.9-176c68.2,31.6,163.6,45.3,241.4,45.3c77.8,0,173.2-13.8,241.4-45.3
        C592.7,885.2,479.8,950.8,378.8,950.8z"/>
      <path fill="#7FC55C" d="M1296,901.7c0-156-144-282.5-321.5-282.5c-84.6,0-161.6,28.8-219,75.7c0.7,8.1,1.1,16.3,1.1,24.6
        c0,86.8-38,165.8-100,225c23.5,135.6,156.9,239.6,317.9,239.6c35.7,0,70-5.1,102.2-14.6c77.9,31.3,188.3,73.1,195,61.3
        c-39.2-46.8-59.1-94.8-69.1-130.1C1260.3,1049.7,1296,979.4,1296,901.7z M1070.6,788.6c23.4,0,42.5,19.1,42.5,42.5
        c0,23.5-19,42.5-42.5,42.5c-23.5,0-42.5-19-42.5-42.5C1028.1,807.7,1047.1,788.6,1070.6,788.6z M876.6,788.6
        c23.5,0,42.5,19.1,42.5,42.5c0,23.5-19.1,42.5-42.5,42.5c-23.5,0-42.5-19-42.5-42.5C834.1,807.7,853.1,788.6,876.6,788.6z
         M974.9,1098.3c-0.5,0-0.9,0-1.3,0c-0.4,0-0.9,0-1.3,0c-85.9,0-181.8-55.7-203.9-149.6c58,26.8,139.1,38.5,205.2,38.5
        c66.1,0,147.2-11.7,205.2-38.5C1156.7,1042.6,1060.7,1098.3,974.9,1098.3z"/>
      <path fill="#008D51" d="M756.6,719.6c0-8.3-0.5-16.4-1.1-24.6c-63.1,51.6-102.6,125.1-102.6,206.7c0,14.6,1.3,28.9,3.7,42.9
        C718.6,885.4,756.6,806.4,756.6,719.6z"/>
    </g>
    <path fill-rule="evenodd" clip-rule="evenodd" fill="#FFFFFF" d="M1070.6,788.6c23.4,0,42.5,19.1,42.5,42.5
      c0,23.5-19,42.5-42.5,42.5c-23.5,0-42.5-19-42.5-42.5C1028.1,807.7,1047.1,788.6,1070.6,788.6z"/>
    <path fill-rule="evenodd" clip-rule="evenodd" fill="#FFFFFF" d="M876.6,788.6c23.5,0,42.5,19.1,42.5,42.5
      c0,23.5-19.1,42.5-42.5,42.5c-23.5,0-42.5-19-42.5-42.5C834.1,807.7,853.1,788.6,876.6,788.6z"/>
    <path fill-rule="evenodd" clip-rule="evenodd" fill="#FFFFFF" d="M974.9,1098.3c-0.5,0-0.9,0-1.3,0c-0.4,0-0.9,0-1.3,0
      c-85.9,0-181.8-55.7-203.9-149.6c58,26.8,139.1,38.5,205.2,38.5c66.1,0,147.2-11.7,205.2-38.5
      C1156.7,1042.6,1060.7,1098.3,974.9,1098.3z"/>
    <path fill-rule="evenodd" clip-rule="evenodd" fill="#FFFFFF" d="M1070.6,788.6c23.4,0,42.5,19.1,42.5,42.5
      c0,23.5-19,42.5-42.5,42.5c-23.5,0-42.5-19-42.5-42.5C1028.1,807.7,1047.1,788.6,1070.6,788.6z"/>
    <path fill-rule="evenodd" clip-rule="evenodd" fill="#FFFFFF" d="M876.6,788.6c23.5,0,42.5,19.1,42.5,42.5
      c0,23.5-19.1,42.5-42.5,42.5c-23.5,0-42.5-19-42.5-42.5C834.1,807.7,853.1,788.6,876.6,788.6z"/>
    <path fill-rule="evenodd" clip-rule="evenodd" fill="#FFFFFF" d="M974.9,1098.3c-0.5,0-0.9,0-1.3,0c-0.4,0-0.9,0-1.3,0
      c-85.9,0-181.8-55.7-203.9-149.6c58,26.8,139.1,38.5,205.2,38.5c66.1,0,147.2-11.7,205.2-38.5
      C1156.7,1042.6,1060.7,1098.3,974.9,1098.3z"/>
  </g>
</g>
</svg>
